<svg width="500" height="500" version="1.1" xmlns="http://www.w3.org/2000/svg" desc="Created with imagetracer.js version 1.2.6" ><path fill="rgb(0,0,0)" stroke="rgb(0,0,0)" stroke-width="1" opacity="0" d="M 0 0 L 500 0 L 500 500 L 0 500 L 0 0 Z M 285 101 L 262 106 Q 247 112 236 121 Q 223 132 215 148 L 210 161 L 206 181 L 206 368 L 209 385 L 212 394 Q 217 407 226 418 Q 237 430 252 438 L 264 443 L 289 448 L 308 448 L 329 444 Q 349 438 363 425 Q 376 413 383 396 L 389 375 L 389 362 L 390 361 L 390 350 L 389 348 L 386 344 L 337 342 L 332 348 L 332 368 L 330 376 L 323 388 L 312 396 L 305 398 L 291 398 L 279 393 Q 268 385 264 371 L 264 180 Q 267 164 278 157 Q 280 158 279 155 L 290 151 L 306 151 L 319 157 L 327 167 L 331 178 L 332 202 L 333 204 L 339 207 L 341 206 L 382 205 L 388 203 L 390 199 L 390 187 L 389 186 L 390 184 L 389 183 L 387 165 L 384 155 Q 378 140 368 129 Q 354 112 331 105 L 312 101 L 285 101 Z M 123 105 L 121 106 L 118 112 L 118 437 L 119 441 L 125 444 L 171 444 L 173 443 L 176 438 L 176 125 L 175 124 L 175 109 L 174 106 L 172 105 L 123 105 Z " /><path fill="rgb(66,140,223)" stroke="rgb(66,140,223)" stroke-width="1" opacity="0.9647058823529412" d="M 284.5 101 L 311.5 101 L 330.5 105 Q 353.6 112.4 368 128.5 Q 378 139.5 384 154.5 L 387 164.5 L 389 182.5 L 390 183.5 L 389 185.5 L 390 186.5 L 390 198.5 L 388 203 L 381.5 205 L 340.5 206 L 338.5 207 L 333 203.5 L 332 201.5 L 331 177.5 L 327 166.5 L 318.5 157 L 305.5 151 L 289.5 151 L 279 155 Q 280.1 157.7 277.5 157 Q 266.7 164.2 264 179.5 L 264 370.5 Q 267.9 385.1 278.5 393 L 290.5 398 L 304.5 398 L 311.5 396 L 323 387.5 L 330 375.5 L 332 367.5 L 332 347.5 L 336.5 342 L 385.5 344 L 389 347.5 L 390 349.5 L 390 360.5 L 389 361.5 L 389 374.5 L 383 395.5 Q 375.6 413.1 362.5 425 Q 348.9 437.9 328.5 444 L 307.5 448 L 288.5 448 L 263.5 443 L 251.5 438 Q 236.6 429.9 226 417.5 Q 217.2 407.3 212 393.5 L 209 384.5 L 206 367.5 L 206 180.5 L 210 160.5 L 215 147.5 Q 222.7 131.7 235.5 121 Q 246.6 111.6 261.5 106 L 284.5 101 Z " /><path fill="rgb(66,140,223)" stroke="rgb(66,140,223)" stroke-width="1" opacity="0.9647058823529412" d="M 122.5 105 L 171.5 105 L 174 106 L 175 108.5 L 175 123.5 L 176 124.5 L 176 437.5 L 172.5 443 L 170.5 444 L 124.5 444 L 119 440.5 L 118 436.5 L 118 111.5 L 120.5 106 L 122.5 105 Z " /></svg>